<svg width="375" height="437" viewBox="0 0 375 437" fill="none" xmlns="http://www.w3.org/2000/svg">
<mask id="mask0_1269_13" style="mask-type:alpha" maskUnits="userSpaceOnUse" x="0" y="0" width="375" height="437">
<rect width="375" height="437" fill="#CE3333"/>
</mask>
<g mask="url(#mask0_1269_13)">
<path d="M398.947 56.4066C396.691 54.2887 392.989 53.2867 389.53 53.8642C386.061 54.4427 382.953 56.5718 381.623 59.2899C380.626 54.9456 379.599 50.5067 376.898 46.7427C374.206 42.9775 369.486 39.9444 364.066 39.9546C358.056 39.9671 352.494 43.8303 350.212 48.4889C347.922 53.1485 348.461 58.3779 350.313 63.0055C346.888 63.7904 344.244 66.6421 344.263 69.5243C344.283 72.4066 346.978 75.0311 350.405 75.5071C344.465 72.4605 336.1 72.7982 330.175 76.3269C324.249 79.8483 321.124 86.344 322.614 92.0342C318.27 89.5982 309.508 90.3229 306.808 94.2535C301.504 86.072 290.552 80.7292 279.061 80.7137C267.571 80.6983 255.976 86.0189 249.706 94.1798C246.178 98.7676 244.297 104.534 246.47 109.456C244.814 107.1 240.132 107.106 237.745 109.164C235.348 111.216 235.208 114.548 236.803 116.933C238.398 119.319 241.389 120.858 244.541 121.737C237.382 117.763 226.152 119.703 220.994 125.798C215.835 131.894 217.689 141.037 224.872 144.978C276.918 144.233 328.677 141.001 380.011 131.868C387.22 130.588 394.744 129.089 400.44 125.112C406.486 120.889 409.599 114.372 410.421 107.999C411.243 101.634 410.028 95.2995 408.813 89.048C406.749 78.3668 401.02 67.0793 398.947 56.4066Z" fill="#CE3333"/>
<path d="M1.18694 4.96462C5.68969 1.87655 13.671 1.4656 19.3019 4.04448C24.9332 6.61721 27.6061 11.9035 25.3681 16.0278C28.8562 16.7079 29.4104 20.7219 26.142 21.5558C35.922 24.2972 43.2305 31.1138 43.9672 38.1728C44.704 45.2319 38.8089 52.1328 29.6147 54.9914C32.2495 55.9637 33.761 58.2339 33.02 60.1307C32.2789 62.0274 29.3757 63.3289 26.4566 63.0767C34.8924 64.3279 42.6066 68.2814 46.8082 73.5075C51.0094 78.7397 51.6064 85.1322 48.3875 90.3676C53.6808 89.1967 60.3304 92.6405 60.2215 96.4978C61.7971 89.3962 72.1593 84.0804 82.7996 84.9158C93.44 85.7512 102.844 92.6197 103.281 99.8843C105.362 98.129 109.399 97.6271 112.498 98.7346C115.596 99.842 117.447 102.448 116.725 104.686C123.731 101.564 134.046 102.127 140.862 106.011C147.678 109.888 150.437 116.764 147.311 122.1C152.84 120.836 159.601 122.018 163.905 124.995C168.209 127.971 169.83 132.588 167.886 136.333C122.046 147.426 70.5896 147.789 21.7361 139.578C7.61076 137.203 -7.74269 133.254 -14.8893 124.477C-19.5038 118.811 -19.7628 112.179 -19.7004 105.875C-19.3665 71.0226 -33.7964 28.9893 1.18694 4.96462Z" fill="#CE3333"/>
<path d="M338.759 116.276C338.129 111.803 333.42 108.805 328.537 109.771C323.654 110.737 319.316 115.524 319.11 120.164C318.624 118.59 316.771 117.704 314.974 118.18C313.177 118.657 311.649 120.438 311.574 122.156C309.524 114.814 301.79 110.041 293.416 110.966C285.046 111.897 276.731 118.44 273.904 126.318C269.917 124.382 263.69 126.931 261.582 131.354C264.583 122.663 260.656 113.302 252.698 110.171C244.73 107.04 233.603 110.475 227.505 117.955C224.456 113.906 216.002 115.665 213.493 120.867C218.224 116.053 219.065 108.418 215.339 104.084C211.606 99.7549 203.806 99.307 198.196 103.103C205.263 95.3527 203.802 82.8146 195.397 79.0542C186.992 75.2938 174.101 81.4161 170.66 90.7921C169.842 88.5486 167.122 87.3335 164.495 88.0287C161.869 88.7238 159.621 91.2626 159.397 93.7834C152.632 90.865 143.976 91.2314 136.396 94.7492C128.815 98.2669 122.446 104.879 119.468 112.326C102.755 154.057 143.766 189.543 174.254 215.612C186.494 226.077 202.543 235.226 220.41 230.823C232.952 227.732 243.689 218.584 253.715 209.811C273.719 192.318 293.723 174.826 313.727 157.334C320.654 151.276 327.653 145.136 333.029 137.839C338.393 130.541 339.879 124.234 338.759 116.276Z" fill="#CE3333"/>
<rect y="120" width="375" height="317" fill="#CE3333"/>
</g>
</svg>
